<?xml version="1.0" encoding="utf-8"?>
<!-- Generator: Adobe Illustrator 22.0.1, SVG Export Plug-In . SVG Version: 6.00 Build 0)  -->
<svg version="1.1" id="Layer_1" xmlns="http://www.w3.org/2000/svg" xmlns:xlink="http://www.w3.org/1999/xlink" x="0px" y="0px"
	 viewBox="0 0 280.9 75.3" style="enable-background:new 0 0 280.9 75.3;" xml:space="preserve">
<style type="text/css">
	.st0{fill:#434345;}
	.st1{fill:#5D5E60;}
	.st2{fill:#747578;}
	.st3{fill:#898B8D;}
	.st4{fill:#9EA0A3;}
	.st5{fill:#B5B7B9;}
	.st6{fill:#CCCED0;}
	.st7{fill:#E4E5E6;}
	.st8{fill:#FFFFFF;}
</style>
<g>
	<path d="M181,29.5c-1.5,0-2.8-1.3-2.8-2.8s1.3-2.8,2.8-2.8s2.8,1.3,2.8,2.8S182.6,29.5,181,29.5z M181,19c-4.2,0-7.7,3.4-7.7,7.7
		c0,4.2,3.4,7.7,7.7,7.7c4.2,0,7.7-3.4,7.7-7.7C188.7,22.4,185.3,19,181,19z"/>
	<path class="st0" d="M164.5,31.6c-2,0-3.6-1.6-3.6-3.6s1.6-3.6,3.6-3.6s3.6,1.6,3.6,3.6S166.5,31.6,164.5,31.6z M164.5,18.2
		c-5.4,0-9.8,4.4-9.8,9.8c0,5.4,4.4,9.8,9.8,9.8c5.4,0,9.8-4.4,9.8-9.8C174.3,22.6,169.9,18.2,164.5,18.2z"/>
	<path class="st1" d="M147.9,33.6c-2.4,0-4.3-1.9-4.3-4.3s1.9-4.3,4.3-4.3s4.3,1.9,4.3,4.3S150.3,33.6,147.9,33.6z M147.9,17.5
		c-6.5,0-11.9,5.3-11.9,11.9c0,6.5,5.3,11.9,11.9,11.9c6.5,0,11.9-5.3,11.9-11.9C159.8,22.8,154.5,17.5,147.9,17.5z"/>
	<path class="st2" d="M131.4,35.7c-2.8,0-5.1-2.3-5.1-5.1s2.3-5.1,5.1-5.1c2.8,0,5.1,2.3,5.1,5.1S134.2,35.7,131.4,35.7z
		 M131.4,16.7c-7.7,0-13.9,6.2-13.9,13.9c0,7.7,6.2,13.9,13.9,13.9c7.7,0,13.9-6.2,13.9-13.9C145.3,22.9,139.1,16.7,131.4,16.7z"/>
	<path class="st3" d="M114.9,37.8c-3.2,0-5.9-2.6-5.9-5.9s2.6-5.9,5.9-5.9c3.2,0,5.9,2.6,5.9,5.9S118.1,37.8,114.9,37.8z
		 M114.9,15.9c-8.9,0-16,7.2-16,16c0,8.9,7.2,16,16,16c8.9,0,16-7.2,16-16C130.9,23.1,123.7,15.9,114.9,15.9z"/>
	<path class="st4" d="M98.3,39.9c-3.7,0-6.6-3-6.6-6.6c0-3.7,3-6.6,6.6-6.6c3.7,0,6.6,3,6.6,6.6C104.9,36.9,102,39.9,98.3,39.9z
		 M98.3,15.1c-10,0-18.1,8.1-18.1,18.1c0,10,8.1,18.1,18.1,18.1c10,0,18.1-8.1,18.1-18.1C116.4,23.3,108.3,15.1,98.3,15.1z"/>
	<path class="st5" d="M81.8,42c-4.1,0-7.4-3.3-7.4-7.4s3.3-7.4,7.4-7.4c4.1,0,7.4,3.3,7.4,7.4S85.8,42,81.8,42z M81.8,14.4
		c-11.2,0-20.2,9.1-20.2,20.2c0,11.2,9.1,20.2,20.2,20.2c11.2,0,20.2-9.1,20.2-20.2C102,23.4,92.9,14.4,81.8,14.4z"/>
	<path class="st6" d="M65.2,44.1c-4.5,0-8.1-3.6-8.1-8.1s3.6-8.1,8.1-8.1s8.1,3.6,8.1,8.1S69.7,44.1,65.2,44.1z M65.2,13.6
		c-12.3,0-22.3,10-22.3,22.3c0,12.3,10,22.3,22.3,22.3c12.3,0,22.3-10,22.3-22.3C87.5,23.6,77.5,13.6,65.2,13.6z"/>
	<path class="st7" d="M48.7,46.1c-4.9,0-8.9-4-8.9-8.9s4-8.9,8.9-8.9s8.9,4,8.9,8.9S53.6,46.1,48.7,46.1z M48.7,12.8
		c-13.5,0-24.4,10.9-24.4,24.4c0,13.5,10.9,24.4,24.4,24.4c13.5,0,24.4-10.9,24.4-24.4C73.1,23.7,62.2,12.8,48.7,12.8z"/>
	<path class="st8" d="M32.1,48.2c-5.3,0-9.7-4.3-9.7-9.7s4.3-9.7,9.7-9.7s9.7,4.3,9.7,9.7S37.5,48.2,32.1,48.2z M32.1,12
		C17.5,12,5.6,23.9,5.6,38.6c0,14.6,11.9,26.5,26.5,26.5c14.6,0,26.5-11.9,26.5-26.5C58.6,23.9,46.8,12,32.1,12z"/>
</g>
<g>
	<g>
		<path d="M10.6,34.9H21v23h8.6v8.2h-19V34.9z M27,62.4v-1.1H16.5V38.6h-1.2v23.7H27z"/>
	</g>
	<g>
		<path d="M43.3,66.9c-2,0-3.7-0.2-5.3-0.7c-1.6-0.5-2.9-1.2-4.1-2.2c-1.1-1-2-2.3-2.6-3.8c-0.6-1.5-0.9-3.3-0.9-5.4V34.9h10v19.4
			c0,1.1,0.2,1.9,0.7,2.5c0.5,0.6,1.2,0.9,2.3,0.9c1.1,0,1.8-0.3,2.3-0.9c0.5-0.6,0.7-1.4,0.7-2.5V34.9h10v19.9
			c0,2.1-0.3,3.9-0.9,5.4c-0.6,1.5-1.5,2.8-2.6,3.8c-1.1,1-2.5,1.7-4.1,2.2C47.1,66.7,45.3,66.9,43.3,66.9z M43.3,61.3
			c-4.7,0-7-2.3-7-6.9V38.6h-1.2v15.8c0,2.6,0.7,4.6,2.1,6c1.4,1.4,3.5,2.1,6.1,2.1c2.7,0,4.7-0.7,6.1-2.1c1.4-1.4,2.2-3.4,2.2-6
			V38.6h-1.3v15.8C50.3,59,48,61.3,43.3,61.3z"/>
	</g>
	<g>
		<path d="M59.4,34.9h8.2l8.6,12v-12H86v31.2h-8.2l-8.6-12v12h-9.8V34.9z M65,62.4V40.8l15.5,21.6h1.2V38.6h-1.2v21.6L65,38.6h-1.2
			v23.7H65z"/>
	</g>
	<g>
		<path d="M88.6,50.5c0-2.5,0.4-4.8,1.3-6.8c0.9-2,2.1-3.7,3.6-5.2c1.5-1.4,3.2-2.5,5.2-3.3c2-0.8,4.1-1.1,6.4-1.1
			c1.8,0,3.4,0.2,4.8,0.5c1.4,0.3,2.6,0.7,3.6,1.2c1.2,0.5,2.2,1,3,1.6l-4.9,8.7c-0.5-0.4-1-0.7-1.6-1.1c-0.5-0.2-1.2-0.5-1.9-0.7
			c-0.7-0.2-1.6-0.4-2.5-0.4c-1,0-1.9,0.2-2.7,0.5c-0.8,0.3-1.5,0.8-2.1,1.4c-0.6,0.6-1.1,1.3-1.4,2.1c-0.3,0.8-0.5,1.6-0.5,2.6
			c0,0.9,0.2,1.8,0.5,2.6c0.4,0.8,0.9,1.5,1.5,2.1c0.6,0.6,1.4,1.1,2.2,1.4c0.8,0.3,1.8,0.5,2.8,0.5s1.9-0.1,2.7-0.4
			c0.8-0.2,1.4-0.5,2-0.8c0.6-0.3,1.2-0.7,1.6-1.2l4.9,8.7c-0.8,0.7-1.8,1.3-3,1.8c-1,0.4-2.2,0.8-3.6,1.2c-1.4,0.4-3,0.6-4.8,0.6
			c-2.4,0-4.7-0.4-6.7-1.2c-2.1-0.8-3.8-1.9-5.3-3.3c-1.5-1.4-2.7-3.2-3.5-5.2C89,55.2,88.6,53,88.6,50.5z M94.5,50.5
			c0-1.5,0.3-2.9,0.8-4.2c0.5-1.3,1.2-2.5,2.2-3.4c0.9-1,2.1-1.7,3.4-2.3c1.3-0.6,2.8-0.8,4.5-0.8c0.8,0,1.5,0.1,2.2,0.2
			c0.6,0.1,1.2,0.2,1.6,0.4c0.5,0.2,1,0.3,1.4,0.6l0.7-1.1c-0.5-0.2-1-0.4-1.6-0.6c-0.5-0.2-1.1-0.3-1.8-0.4
			c-0.7-0.1-1.5-0.2-2.4-0.2c-1.6,0-3.1,0.3-4.6,0.8s-2.7,1.4-3.8,2.4c-1.1,1-2,2.3-2.7,3.8c-0.7,1.5-1,3.1-1,4.9c0,1.8,0.3,3.5,1,5
			c0.6,1.5,1.5,2.7,2.6,3.8c1.1,1,2.4,1.8,3.9,2.4s3.1,0.8,4.8,0.8c0.9,0,1.8-0.1,2.5-0.2c0.7-0.2,1.4-0.3,1.9-0.5
			c0.6-0.2,1.1-0.5,1.6-0.7l-0.7-1.1c-0.4,0.3-0.9,0.5-1.4,0.7c-0.5,0.2-1,0.4-1.7,0.5c-0.7,0.1-1.4,0.2-2.3,0.2
			c-1.7,0-3.3-0.3-4.6-0.8c-1.4-0.6-2.5-1.3-3.5-2.3c-1-1-1.7-2.1-2.2-3.4S94.5,52,94.5,50.5z"/>
	</g>
	<g>
		<path d="M118,34.9h10v10.6h5.6V34.9h10v31.2h-10V54.6H128v11.6h-10V34.9z M123.9,62.4V50.5h13.8v11.8h1.2V38.6h-1.2v10.8h-13.8
			V38.6h-1.2v23.7H123.9z"/>
	</g>
	<g>
		<path d="M151,43.1h-5.8v-8.2h21.8v8.2h-5.8v23H151V43.1z M156.8,62.4V39.8h6.7v-1.1h-14.6v1.1h6.7v22.6H156.8z"/>
	</g>
	<g>
		<path d="M178,34.9h7.5l11.8,31.2h-9.8l-1-2.8H177l-1,2.8h-9.8L178,34.9z M173.1,62.4L174,60h15.5l0.9,2.3h1.3l-9-23.7h-1.8
			l-9,23.7H173.1z M181.7,39.8l7.3,19.2h-14.6L181.7,39.8z M183.8,56.4l-2.1-5.5l-2.1,5.5H183.8z"/>
	</g>
	<g>
		<path d="M217.9,45.5c-0.6-0.5-1.3-0.9-2.1-1.1c-0.8-0.3-1.7-0.4-2.5-0.4c-0.9,0-1.7,0.2-2.5,0.5c-0.7,0.3-1.4,0.8-1.9,1.4
			c-0.5,0.6-1,1.3-1.3,2.1c-0.3,0.8-0.5,1.7-0.5,2.6s0.2,1.8,0.5,2.6c0.3,0.8,0.8,1.5,1.4,2.1c0.6,0.6,1.3,1,2.1,1.4
			c0.8,0.3,1.6,0.5,2.6,0.5c1.1,0,2-0.2,2.9-0.7c0.9-0.5,1.6-1.1,2.2-1.8h-2.8V48h12v10.4c-0.7,1.3-1.6,2.4-2.6,3.5
			c-1,1-2.1,1.9-3.3,2.7c-1.2,0.7-2.6,1.3-4,1.7c-1.4,0.4-2.9,0.6-4.4,0.6c-2.2,0-4.4-0.4-6.4-1.3c-2-0.8-3.7-2-5.2-3.5
			s-2.7-3.2-3.5-5.2c-0.9-2-1.3-4.2-1.3-6.5c0-2.2,0.4-4.4,1.2-6.4c0.8-2,1.9-3.7,3.3-5.2c1.4-1.5,3.1-2.7,5.1-3.5
			c2-0.9,4.1-1.3,6.3-1.3c1.7,0,3.3,0.2,4.5,0.5c1.3,0.3,2.4,0.7,3.2,1.2c1,0.5,1.9,1,2.6,1.6L217.9,45.5z M218.4,39.5
			c-0.4-0.2-0.9-0.3-1.4-0.5c-0.4-0.1-1-0.2-1.5-0.3c-0.6-0.1-1.2-0.1-2-0.1c-1.7,0-3.2,0.3-4.6,0.9c-1.4,0.6-2.7,1.4-3.7,2.5
			c-1.1,1-1.9,2.3-2.5,3.8c-0.6,1.5-0.9,3.1-0.9,4.9s0.3,3.4,0.9,4.9c0.6,1.5,1.5,2.7,2.6,3.8c1.1,1,2.4,1.9,3.8,2.5
			c1.5,0.6,3,0.9,4.7,0.9c2.2,0,4.1-0.5,5.9-1.5c1.7-1,3.2-2.4,4.3-4.1v-6.1h-5v1.1h3.7v4.7c-1,1.4-2.2,2.6-3.8,3.4
			c-1.5,0.8-3.3,1.3-5.1,1.3c-1.5,0-2.9-0.3-4.2-0.8c-1.3-0.5-2.4-1.2-3.4-2.2c-1-1-1.8-2.1-2.3-3.4c-0.6-1.3-0.8-2.8-0.8-4.4
			c0-1.6,0.3-3.1,0.8-4.4c0.5-1.3,1.3-2.5,2.2-3.4c1-1,2.1-1.7,3.3-2.2c1.3-0.5,2.7-0.8,4.2-0.8c0.6,0,1.1,0,1.6,0.1
			c0.5,0.1,0.9,0.2,1.3,0.3c0.4,0.1,0.8,0.2,1.2,0.4L218.4,39.5z"/>
	</g>
	<g>
		<path d="M230.7,34.9h18.4v8.2h-8.4v3.5h8.3v7.8h-8.3v3.6h8.8v8.2h-18.7V34.9z M245.9,62.4v-1.1h-9.4V51h8.9v-1.1h-8.9V39.8h9.4
			v-1.1h-10.6v23.7H245.9z"/>
	</g>
	<g>
		<path d="M256.3,43.1h-5.8v-8.2h21.8v8.2h-5.8v23h-10.3V43.1z M262.1,62.4V39.8h6.7v-1.1h-14.6v1.1h6.7v22.6H262.1z"/>
	</g>
</g>
</svg>
